PathFileType	4	(X/Y/Z)	C:/Users/opensim2020/Desktop/walking_exp_matlab/subject01_walking16_run.trc																																																																																																																																																																																											
DataRate	CameraRate	NumFrames	NumMarkers	Units	OrigDataRate	OrigDataStartFrame	OrigNumFrames																																																																																																																																																																																							
100	100	6	63	mm	100	425	89																																																																																																																																																																																							
Frame#	Time	LKNE			RELB			LTHI			RUPA			LTIB			RFRM			LTOE			LSHO			RWRA			RSHO			RWRB			STRN			RFIN			RBHD			CLAV			LHEE			LFHD			RASI			RFHD			LBHD			C7			LWRB			LWRA			LFRM			RTHI			RKNE			LELB			LFIN			LUPA			RTIB			RANK			RTOE			RHEE			T10			RBAK			LASI			LPSI			RPSI			LANK			*39			*40			*41			*42			*43			*44			*45			*46			*47			*48			*49			*50			*51			*52			*53			*54			*55			*56			*57			*58			*59			*60			*61			*62		
		X1	Y1	Z1	X2	Y2	Z2	X3	Y3	Z3	X4	Y4	Z4	X5	Y5	Z5	X6	Y6	Z6	X7	Y7	Z7	X8	Y8	Z8	X9	Y9	Z9	X10	Y10	Z10	X11	Y11	Z11	X12	Y12	Z12	X13	Y13	Z13	X14	Y14	Z14	X15	Y15	Z15	X16	Y16	Z16	X17	Y17	Z17	X18	Y18	Z18	X19	Y19	Z19	X20	Y20	Z20	X21	Y21	Z21	X22	Y22	Z22	X23	Y23	Z23	X24	Y24	Z24	X25	Y25	Z25	X26	Y26	Z26	X27	Y27	Z27	X28	Y28	Z28	X29	Y29	Z29	X30	Y30	Z30	X31	Y31	Z31	X32	Y32	Z32	X33	Y33	Z33	X34	Y34	Z34	X35	Y35	Z35	X36	Y36	Z36	X37	Y37	Z37	X38	Y38	Z38	X39	Y39	Z39	X40	Y40	Z40	X41	Y41	Z41	X42	Y42	Z42	X43	Y43	Z43	X44	Y44	Z44	X45	Y45	Z45	X46	Y46	Z46	X47	Y47	Z47	X48	Y48	Z48	X49	Y49	Z49	X50	Y50	Z50	X51	Y51	Z51	X52	Y52	Z52	X53	Y53	Z53	X54	Y54	Z54	X55	Y55	Z55	X56	Y56	Z56	X57	Y57	Z57	X58	Y58	Z58	X59	Y59	Z59	X60	Y60	Z60	X61	Y61	Z61	X62	Y62	Z62	X63	Y63	Z63
																																																																																																																																																																																														
78	0.77	2002.65503	529.59717	-628.06293	1772.76648	1087.75244	-204.66301	1938.95178	647.4931	-640.95276	1776.93933	1217.27283	-223.642	2040.48804	349.9346	-646.29321	1864.25989	1082.42285	-292.63239	2272.69775	94.5128	-593.61804	1744.92615	1393.06189	-644.65985	1918.9895	1162.90479	-390.47031	1806.29834	1390.34253	-351.92294	1942.08838	1112.67224	-385.41544	1878.71204	1214.10852	-527.39233	1985.77173	1157.46973	-443.8418	1722.06396	1606.90564	-407.95908	1835.9054	1365.68042	-508.31998	2091.71362	121.74805	-546.51746	1801.39502	1664.55249	-544.604	1818.65027	924.48749	-357.92715	1826.44922	1672.40259	-434.89633	1697.00732	1601.97583	-525.19037	1690.67773	1420.4032	-471.2742	1651.28552	989.51086	-818.07019	1697.16858	1012.87714	-789.51404	1581.6394	1094.70874	-805.97241	1678.43823	602.35272	-303.05814	1623.99597	445.93912	-324.30627	1519.45581	1195.99658	-770.86517	1727.8728	945.73224	-833.48102	1620.09692	1302.2749	-729.69885	1445.63647	414.92383	-319.85519	1247.35767	350.45636	-354.7897	1228.59094	202.67378	-359.60706	1206.35913	384.85922	-407.79688	1653.48193	1138.45972	-458.20532	1656.15063	1236.42908	-375.47318	1833.74622	935.69452	-565.37201	1655.26965	956.8465	-527.59735	1651.66602	970.02942	-390.14136	2121.86548	140.74451	-604.87854	1973.17358	1023.86536	-3101.95776	2012.39246	1021.82111	-3140.83521	NaN	NaN	NaN	NaN	NaN	NaN	NaN	NaN	NaN	NaN	NaN	NaN	NaN	NaN	NaN	NaN	NaN	NaN	NaN	NaN	NaN	NaN	NaN	NaN	1806.89197	1706.39197	-454.5556	NaN	NaN	NaN	NaN	NaN	NaN	NaN	NaN	NaN	NaN	NaN	NaN	NaN	NaN	NaN	NaN	NaN	NaN	NaN	NaN	NaN	NaN	NaN	NaN	NaN	NaN	NaN	NaN	NaN	NaN	NaN	NaN	NaN	NaN	NaN	NaN	NaN	NaN	NaN
79	0.78	2048.3396	520.80371	-629.59113	1813.92151	1085.18567	-205.13522	1985.2312	636.03125	-644.21613	1819.44421	1213.23352	-224.72464	2084.2417	343.48007	-646.93433	1906.71643	1076.89441	-291.815	2312.72412	83.23309	-587.54041	1790.88733	1389.28906	-647.47424	1963.71655	1155.81604	-390.12863	1850.21619	1387.67859	-353.18472	1986.67249	1105.33545	-383.36581	1924.96143	1210.64612	-528.54724	2030.69202	1148.0658	-443.68857	1766.16394	1603.35583	-410.88727	1880.93274	1362.91309	-510.10727	2130.65161	114.81752	-549.37079	1845.02087	1661.13232	-547.69598	1866.86584	923.4444	-357.56128	1870.25513	1669.34485	-438.09204	1741.14746	1598.09863	-528.17468	1735.62964	1417.14246	-474.69592	1705.6803	985.39685	-820.37671	1751.03796	1009.71112	-791.74261	1633.78992	1088.5791	-808.74817	1732.47986	599.06592	-300.76196	1679.97485	444.07034	-319.39297	1568.60022	1188.22632	-774.19672	1782.55542	943.5769	-836.81384	1667.36121	1294.96777	-731.93213	1499.96777	425.87537	-320.25339	1300.17822	374.06863	-357.83084	1273.14502	228.39207	-356.20612	1260.98059	408.90256	-413.35004	1699.69592	1134.72314	-462.27454	1700.70715	1233.09741	-379.47015	1882.84851	930.23071	-565.24243	1704.72949	952.42499	-532.43555	1699.95264	967.90234	-394.55179	2163.36572	133.26196	-605.60052	1973.13098	1023.7937	-3101.89331	2012.39697	1021.8446	-3140.80127	NaN	NaN	NaN	NaN	NaN	NaN	NaN	NaN	NaN	NaN	NaN	NaN	NaN	NaN	NaN	NaN	NaN	NaN	NaN	NaN	NaN	NaN	NaN	NaN	1850.82983	1703.7854	-457.92926	NaN	NaN	NaN	NaN	NaN	NaN	NaN	NaN	NaN	NaN	NaN	NaN	NaN	NaN	NaN	NaN	NaN	NaN	NaN	NaN	NaN	NaN	NaN	NaN	NaN	NaN	NaN	NaN	NaN	NaN	NaN	NaN	NaN	NaN	NaN	NaN	NaN	NaN	NaN
80	0.79	2094.47363	514.2605	-629.8725	1852.45056	1081.98706	-205.58586	2029.68091	628.44324	-648.15063	1858.84924	1209.34436	-225.85799	2126.1355	336.11441	-646.86005	1947.1344	1069.28687	-290.14783	2344.10815	66.35071	-581.01862	1836.5824	1384.37219	-649.97589	2008.36267	1144.80286	-389.11224	1893.56482	1383.80981	-354.54056	2030.24158	1094.57446	-379.84409	1971.34448	1206.00208	-528.85883	2076.10449	1134.17297	-441.56549	1810.1283	1598.73706	-413.75284	1925.72437	1358.69727	-511.41702	2162.53809	105.94645	-549.71198	1888.56396	1656.94836	-550.7937	1914.78455	921.75568	-357.72699	1913.78333	1665.25574	-441.03806	1785.02979	1593.18848	-530.84955	1780.66809	1413.16504	-478.28513	1762.71399	980.00519	-822.63666	1807.20471	1005.54083	-793.58441	1688.21619	1080.91003	-811.82263	1787.26721	594.61481	-298.194	1737.63281	440.11246	-315.7973	1619.42712	1178.12183	-778.41656	1840.50098	940.22601	-838.45227	1715.12268	1285.95764	-735.08588	1558.57202	434.17041	-320.66916	1356.80273	395.39102	-360.96573	1322.52454	251.99771	-355.32547	1319.58032	430.86249	-417.72202	1745.4856	1129.69141	-466.81317	1745.17578	1228.94226	-383.35281	1931.21985	924.35101	-565.25861	1753.34937	946.17603	-537.12292	1747.36633	963.54297	-399.72379	2197.37012	122.89778	-604.89966	1973.07178	1023.76123	-3102.03735	2012.42908	1021.9585	-3140.71558	NaN	NaN	NaN	NaN	NaN	NaN	NaN	NaN	NaN	NaN	NaN	NaN	NaN	NaN	NaN	NaN	NaN	NaN	NaN	NaN	NaN	NaN	NaN	NaN	1894.42285	1700.28442	-461.1915	NaN	NaN	NaN	NaN	NaN	NaN	NaN	NaN	NaN	NaN	NaN	NaN	NaN	NaN	NaN	NaN	NaN	NaN	NaN	NaN	NaN	NaN	NaN	NaN	NaN	NaN	NaN	NaN	NaN	NaN	NaN	NaN	NaN	NaN	NaN	NaN	NaN	NaN	NaN
81	0.8	2140.19727	510.15579	-628.69958	1888.76367	1077.97437	-206.19058	2076.57544	625.78955	-646.08484	1895.32715	1205.49841	-227.49126	2166.07202	327.44839	-646.04474	1985.89172	1059.91052	-287.55576	2370.61377	50.27408	-577.27332	1882.61255	1378.30042	-652.60413	2052.68701	1130.64526	-387.06769	1936.61572	1379.01599	-355.81296	2072.82349	1080.4447	-374.95926	2017.94299	1200.23633	-528.4621	2121.44922	1116.20459	-437.03204	1853.83325	1593.1991	-416.27045	1971.17456	1353.5011	-512.64508	2188.04761	94.36868	-549.39478	1931.80029	1651.90271	-553.43939	1962.66272	919.06677	-358.5434	1957.04419	1660.33362	-443.70587	1828.71021	1587.4458	-533.2608	1825.55908	1408.10437	-481.94785	1822.30261	973.71344	-824.66547	1865.44653	1000.64996	-794.97485	1744.45984	1071.68628	-815.15845	1842.57666	589.33234	-295.50693	1798.52161	434.7916	-311.68527	1671.6897	1166.0249	-783.27759	1900.14929	935.414	-838.39917	1763.37219	1275.49951	-738.76294	1620.10864	439.76575	-320.81436	1417.99329	413.73651	-363.06952	1376.21082	272.31873	-356.47141	1381.85388	450.32315	-420.73331	1790.93945	1123.52698	-471.75034	1789.45422	1223.69604	-387.366	1978.43115	917.85236	-565.8457	1801.00793	938.19501	-541.31805	1794.62329	956.85321	-403.9147	2225.1853	110.51896	-603.63983	1973.00378	1024.24695	-3102.07617	2012.38733	1021.84943	-3140.86938	NaN	NaN	NaN	NaN	NaN	NaN	NaN	NaN	NaN	NaN	NaN	NaN	NaN	NaN	NaN	NaN	NaN	NaN	NaN	NaN	NaN	NaN	NaN	NaN	1937.71143	1695.82532	-464.19379	NaN	NaN	NaN	NaN	NaN	NaN	NaN	NaN	NaN	NaN	NaN	NaN	NaN	NaN	NaN	NaN	NaN	NaN	NaN	NaN	NaN	NaN	NaN	NaN	NaN	NaN	NaN	NaN	NaN	NaN	NaN	NaN	NaN	NaN	NaN	NaN	NaN	NaN	NaN
82	0.81	2184.44775	505.06357	-626.61139	1923.48486	1073.44824	-206.71739	2124.65479	623.65088	-639.62146	1929.88098	1201.7821	-229.14435	2202.03516	315.48566	-643.41663	2023.04883	1049.08118	-284.1951	2401.70117	46.45088	-576.08636	1928.87732	1371.24377	-655.57062	2096.20923	1113.86658	-383.56851	1979.52026	1373.11902	-357.42914	2114.0603	1063.47803	-368.70203	2064.73193	1193.6875	-527.6203	2166.35596	1095.09741	-429.84857	1897.34961	1586.9519	-418.45041	2016.69885	1346.95129	-513.92151	2204.67505	73.08307	-551.73566	1974.75183	1646.27637	-555.83563	2010.45447	915.30994	-359.86887	2000.08606	1654.80664	-446.03079	1872.23486	1580.95288	-535.77313	1870.06201	1401.88928	-486.33167	1884.09131	966.50958	-825.77716	1925.3042	995.11835	-795.41791	1802.23425	1061.02319	-818.42346	1898.46191	582.58887	-293.60394	1859.7937	427.42831	-310.7142	1725.11987	1151.96472	-788.43158	1963.99072	931.22913	-837.33746	1812.42859	1264.30701	-743.63916	1684.70508	442.80038	-320.12549	1481.14612	427.5903	-365.79398	1434.53979	288.95303	-358.50525	1447.32788	466.54938	-423.2565	1836.32654	1116.4751	-476.81042	1833.41187	1217.19055	-391.82391	2024.96362	911.06329	-567.50354	1847.18811	928.93994	-544.63373	1840.74121	948.59119	-406.40787	2245.84717	95.56035	-599.58008	1973.08936	1023.57446	-3101.96558	2012.448	1021.94446	-3140.75269	NaN	NaN	NaN	NaN	NaN	NaN	NaN	NaN	NaN	NaN	NaN	NaN	NaN	NaN	NaN	NaN	NaN	NaN	NaN	NaN	NaN	NaN	NaN	NaN	1980.75427	1690.50159	-467.12405	NaN	NaN	NaN	NaN	NaN	NaN	NaN	NaN	NaN	NaN	NaN	NaN	NaN	NaN	NaN	NaN	NaN	NaN	NaN	NaN	NaN	NaN	NaN	NaN	NaN	NaN	NaN	NaN	NaN	NaN	NaN	NaN	NaN	NaN	NaN	NaN	NaN	NaN	NaN
83	0.82	2227.84375	496.49841	-624.1759	1956.79895	1068.65369	-207.37646	2174.3855	621.85089	-635.8916	1963.30505	1197.54932	-231.10716	2235.95313	302.98776	-640.42578	2058.69775	1037.16418	-280.09146	2417.75317	45.61722	-576.31201	1975.64099	1363.51343	-659.20563	2138.54834	1094.73389	-378.73877	2022.61829	1366.74609	-358.89642	2153.56641	1044.15845	-361.04596	2111.58228	1186.74097	-526.67316	2209.92822	1071.41577	-420.20862	1940.65295	1580.25378	-420.78503	2062.3479	1339.40918	-515.07922	2216.49316	60.59607	-552.83423	2017.6311	1640.72522	-558.23553	2057.50977	910.51483	-361.83759	2042.89111	1649.33716	-448.03952	1915.61426	1574.12708	-538.00525	1913.90857	1394.67993	-490.32748	1948.32104	958.64172	-826.26135	1987.52734	989.67493	-795.06927	1860.72852	1048.54065	-821.39301	1955.50073	574.60394	-292.74268	1924.83386	420.17889	-306.15073	1779.84045	1136.2959	-793.99463	2029.96729	927.24286	-834.56763	1862.31079	1251.9718	-749.03485	1750.76257	442.39273	-320.14706	1547.87012	438.59488	-368.16785	1497.5896	301.77859	-360.37277	1514.93713	478.62064	-425.54703	1881.66162	1108.26074	-481.509	1877.05591	1209.29321	-396.95236	2069.97412	904.20709	-569.70392	1891.26245	918.98572	-547.18817	1886.10071	938.8407	-407.46225	2261.53735	84.62257	-596.62634	1973.02637	1024.01025	-3102.19556	2012.42896	1021.89502	-3140.77197	NaN	NaN	NaN	NaN	NaN	NaN	NaN	NaN	NaN	NaN	NaN	NaN	NaN	NaN	NaN	NaN	NaN	NaN	NaN	NaN	NaN	NaN	NaN	NaN	2023.4856	1684.375	-469.82703	NaN	NaN	NaN	NaN	NaN	NaN	NaN	NaN	NaN	NaN	NaN	NaN	NaN	NaN	NaN	NaN	NaN	NaN	NaN	NaN	NaN	NaN	NaN	NaN	NaN	NaN	NaN	NaN	NaN	NaN	NaN	NaN	NaN	NaN	NaN	NaN	NaN	NaN	NaN
